<svg width="14" height="21" viewBox="0 0 14 21" fill="none" xmlns="http://www.w3.org/2000/svg">
<path d="M12.1041 2.14669C10.8808 0.783611 9.13732 0.173492 7.21197 0.173492H0.525879V20.8264H4.57979C5.97627 16.8158 8.08996 12.4403 6.64926 5.95777C8.56852 12.7179 6.67021 17.0141 5.33048 20.8264H7.21197C9.13732 20.8264 10.8808 20.2174 12.1039 18.8543C14.1858 16.533 13.9774 13.5164 13.9774 10.4126C13.9776 7.30984 14.186 4.4669 12.1041 2.14669ZM6.52322 18.3867C7.56091 15.7915 8.6516 11.6286 7.09972 6.52511C9.17635 9.12624 9.4979 12.97 9.05783 14.7236C12.8161 10.5128 8.95363 5.59313 5.09988 3.49692C7.55715 8.10466 7.18655 12.4462 5.27857 17.6694C-0.71591 13.4709 6.40058 8.12211 4.38374 2.36555C13.0892 6.09768 14.6411 14.4906 6.52322 18.3867Z" fill="#359740"/>
</svg>
