<svg width="24" height="24" viewBox="0 0 24 24" fill="none" xmlns="http://www.w3.org/2000/svg">
<path d="M19.6573 4.80092C18.6273 3.78233 17.2619 3.16064 15.8078 3.04815C14.3538 2.93566 12.9068 3.33979 11.7284 4.18754C10.4921 3.28054 8.9533 2.86926 7.42187 3.03652C5.89044 3.20379 4.48014 3.93718 3.47497 5.08901C2.46981 6.24083 1.94444 7.72554 2.00466 9.24413C2.06488 10.7627 2.70623 12.2024 3.79954 13.2733L9.83364 19.2346C10.3389 19.7251 11.0195 20 11.7284 20C12.4374 20 13.1179 19.7251 13.6232 19.2346L19.6573 13.2733C20.7918 12.1474 21.4286 10.6245 21.4286 9.0371C21.4286 7.44971 20.7918 5.9268 19.6573 4.80092V4.80092ZM18.2872 11.9507L12.2531 17.9024C12.1845 17.9708 12.1027 18.0251 12.0127 18.0621C11.9226 18.0992 11.826 18.1183 11.7284 18.1183C11.6308 18.1183 11.5342 18.0992 11.4442 18.0621C11.3541 18.0251 11.2724 17.9708 11.2037 17.9024L5.1696 11.9219C4.40757 11.1536 3.98086 10.1215 3.98086 9.04669C3.98086 7.97186 4.40757 6.93977 5.1696 6.17145C5.94612 5.41525 6.99341 4.99123 8.08463 4.99123C9.17584 4.99123 10.2231 5.41525 10.9997 6.17145C11.09 6.26128 11.1975 6.33258 11.3159 6.38124C11.4343 6.4299 11.5613 6.45495 11.6895 6.45495C11.8178 6.45495 11.9448 6.4299 12.0632 6.38124C12.1816 6.33258 12.2891 6.26128 12.3794 6.17145C13.156 5.41525 14.2032 4.99123 15.2945 4.99123C16.3857 4.99123 17.433 5.41525 18.2095 6.17145C18.982 6.9297 19.4227 7.9562 19.4372 9.03105C19.4518 10.1059 19.039 11.1436 18.2872 11.9219V11.9507Z" fill="#359740"/>
</svg>
