<svg width="0" height="0" class="hidden">
  <symbol fill="none" xmlns="http://www.w3.org/2000/svg" viewBox="0 0 24 24" id="bundles">
    <path d="M6.00997 5.60575C5.85248 6.10597 6.24355 7.2127 6.41587 7.40561L6.26574 7.66038L9.30308 18.266C9.4738 18.9081 9.96865 18.9484 10.1947 18.8883L18.1304 16.7786C18.9185 16.6837 19.054 16.2466 19.0233 16.0399L16.1005 5.0458L15.7758 4.91726C15.9093 4.6908 15.987 3.52628 15.5734 3.06329C15.0565 2.48455 6.20684 4.98047 6.00997 5.60575Z" stroke="#359740" stroke-width="1.28571"></path>
    <path d="M3.46146 11.2722C3.38768 11.8048 4.02213 12.7688 4.24506 12.9066L4.13207 13.1981L9.44573 22.6414C9.75323 23.2169 10.2948 23.1126 10.5271 22.9885L18.6816 18.6321C19.5134 18.311 19.5757 17.8461 19.5028 17.6538L14.2381 7.79912L13.8632 7.76819C13.9636 7.50901 13.8237 6.35281 13.2887 6.02208C12.6199 5.60868 3.5537 10.6063 3.46146 11.2722Z" fill="white" stroke="#359740" stroke-width="1.28571"></path>
  </symbol>
  <symbol fill="none" xmlns="http://www.w3.org/2000/svg" viewBox="0 0 24 24" id="cart">
    <path d="M8.88672 21.3334C9.71515 21.3334 10.3867 20.6618 10.3867 19.8334C10.3867 19.0049 9.71515 18.3334 8.88672 18.3334C8.05829 18.3334 7.38672 19.0049 7.38672 19.8334C7.38672 20.6618 8.05829 21.3334 8.88672 21.3334Z" fill="#359740"></path>
    <path d="M18 21.3334C18.8284 21.3334 19.5 20.6618 19.5 19.8334C19.5 19.0049 18.8284 18.3334 18 18.3334C17.1716 18.3334 16.5 19.0049 16.5 19.8334C16.5 20.6618 17.1716 21.3334 18 21.3334Z" fill="#359740"></path>
    <path d="M22.0533 3.58003C21.9913 3.50356 21.913 3.44177 21.8243 3.39912C21.7355 3.35647 21.6384 3.33402 21.54 3.33337H7.65995L8.09329 4.6667H20.6666L18.8866 12.6667H8.88662L5.83995 3.02003C5.807 2.91767 5.74977 2.8248 5.67315 2.74935C5.59654 2.67389 5.5028 2.61809 5.39995 2.5867L2.66662 1.7467C2.58257 1.72087 2.49426 1.71185 2.40673 1.72015C2.3192 1.72846 2.23416 1.75392 2.15647 1.79509C1.99956 1.87823 1.88211 2.02029 1.82995 2.19003C1.77779 2.35977 1.7952 2.54328 1.87834 2.70018C1.96148 2.85709 2.10355 2.97454 2.27329 3.0267L4.66662 3.76003L7.72662 13.4267L6.63329 14.32L6.54662 14.4067C6.27618 14.7184 6.12289 15.1146 6.11315 15.5271C6.10342 15.9396 6.23784 16.3426 6.49329 16.6667C6.67499 16.8877 6.90589 17.0631 7.16751 17.1788C7.42913 17.2946 7.71421 17.3475 7.99995 17.3334H19.1266C19.3034 17.3334 19.473 17.2631 19.598 17.1381C19.723 17.0131 19.7933 16.8435 19.7933 16.6667C19.7933 16.4899 19.723 16.3203 19.598 16.1953C19.473 16.0703 19.3034 16 19.1266 16H7.89329C7.81652 15.9974 7.74172 15.975 7.67612 15.9351C7.61053 15.8951 7.55635 15.8389 7.51882 15.7719C7.48128 15.7048 7.46167 15.6293 7.46187 15.5525C7.46207 15.4757 7.48207 15.4002 7.51995 15.3334L9.12662 14H19.42C19.5741 14.0038 19.7247 13.954 19.8463 13.8592C19.9678 13.7644 20.0527 13.6304 20.0866 13.48L22.2 4.1467C22.2202 4.04731 22.2176 3.94461 22.1921 3.84641C22.1667 3.74821 22.1192 3.6571 22.0533 3.58003Z" fill="#359740"></path>
  </symbol>
  <symbol fill="none" xmlns="http://www.w3.org/2000/svg" viewBox="0 0 24 24" id="cart-notification">
    <path d="M8.88672 21.3334C9.71515 21.3334 10.3867 20.6618 10.3867 19.8334C10.3867 19.0049 9.71515 18.3334 8.88672 18.3334C8.05829 18.3334 7.38672 19.0049 7.38672 19.8334C7.38672 20.6618 8.05829 21.3334 8.88672 21.3334Z" fill="#359740"></path>
    <path d="M18 21.3334C18.8284 21.3334 19.5 20.6618 19.5 19.8334C19.5 19.0049 18.8284 18.3334 18 18.3334C17.1716 18.3334 16.5 19.0049 16.5 19.8334C16.5 20.6618 17.1716 21.3334 18 21.3334Z" fill="#359740"></path>
    <path d="M15.0467 4.66671C15.0163 4.44577 15.0007 4.22305 15 4.00004C15.0007 3.77703 15.0163 3.55431 15.0467 3.33337H7.66003L8.09337 4.66671H15.0467Z" fill="#359740"></path>
    <path d="M20 9.00003H19.72L18.8866 12.6667H8.88662L5.83995 3.02003C5.807 2.91767 5.74977 2.8248 5.67315 2.74935C5.59654 2.67389 5.5028 2.61809 5.39995 2.5867L2.66662 1.7467C2.58257 1.72087 2.49426 1.71185 2.40673 1.72015C2.3192 1.72846 2.23416 1.75392 2.15647 1.79509C1.99956 1.87823 1.88211 2.02029 1.82995 2.19003C1.77779 2.35977 1.7952 2.54328 1.87834 2.70018C1.96148 2.85709 2.10355 2.97454 2.27329 3.0267L4.66662 3.76003L7.72662 13.4267L6.63329 14.32L6.54662 14.4067C6.27618 14.7184 6.12289 15.1146 6.11315 15.5271C6.10342 15.9396 6.23784 16.3426 6.49329 16.6667C6.67499 16.8877 6.90589 17.0631 7.16751 17.1788C7.42913 17.2946 7.71421 17.3475 7.99995 17.3334H19.1266C19.3034 17.3334 19.473 17.2631 19.598 17.1381C19.723 17.0131 19.7933 16.8435 19.7933 16.6667C19.7933 16.4899 19.723 16.3203 19.598 16.1953C19.473 16.0703 19.3034 16 19.1266 16H7.89329C7.81652 15.9974 7.74172 15.975 7.67612 15.9351C7.61053 15.8951 7.55635 15.8389 7.51882 15.7719C7.48128 15.7048 7.46167 15.6293 7.46187 15.5525C7.46207 15.4757 7.48207 15.4002 7.51995 15.3334L9.12662 14H19.42C19.5741 14.0038 19.7247 13.954 19.8463 13.8592C19.9678 13.7644 20.0527 13.6304 20.0866 13.48L21.1333 8.87337C20.7616 8.95861 20.3813 9.00111 20 9.00003Z" fill="#359740"></path>
    <path d="M20 7.33329C21.8409 7.33329 23.3333 5.84091 23.3333 3.99996C23.3333 2.15901 21.8409 0.666626 20 0.666626C18.159 0.666626 16.6666 2.15901 16.6666 3.99996C16.6666 5.84091 18.159 7.33329 20 7.33329Z" fill="#359740"></path>
  </symbol>
  <symbol fill="none" xmlns="http://www.w3.org/2000/svg" viewBox="0 0 24 24" id="check">
    <g clip-path="url(#clip0_11_1564)">
      <path d="M20 7L10 17L5 12" stroke="#242328" stroke-width="2" stroke-linecap="round" stroke-linejoin="round"></path>
    </g>
    <defs>
      <clipPath id="clip0_11_1564">
        <rect width="24" height="24" fill="white"></rect>
      </clipPath>
    </defs>
  </symbol>
  <symbol fill="none" xmlns="http://www.w3.org/2000/svg" viewBox="0 0 24 24" id="clock">
    <path d="M12 2.54089C7.05 2.54089 3 6.59089 3 11.5409C3 16.4909 7.05 20.5409 12 20.5409C16.95 20.5409 21 16.4909 21 11.5409C21 6.59089 16.95 2.54089 12 2.54089ZM14.7 12.4409H12C11.46 12.4409 11.1 12.0809 11.1 11.5409V7.04089C11.1 6.50089 11.46 6.14089 12 6.14089C12.54 6.14089 12.9 6.50089 12.9 7.04089V10.6409H14.7C15.24 10.6409 15.6 11.0009 15.6 11.5409C15.6 12.0809 15.24 12.4409 14.7 12.4409Z" fill="#359740"></path>
  </symbol>
  <symbol fill="none" xmlns="http://www.w3.org/2000/svg" viewBox="0 0 24 24" id="cross">
    <circle cx="12" cy="12" r="12" fill="#E55C5C"></circle>
    <g clip-path="url(#clip0_45_6171)">
      <path d="M9.08301 9.08331L14.9164 14.9167M9.08301 14.9167L14.9164 9.08331" stroke="white" stroke-width="1.16668" stroke-linecap="round" stroke-linejoin="round"></path>
    </g>
    <defs>
      <clipPath id="clip0_45_6171">
        <rect width="14.0001" height="14.0001" fill="white" transform="translate(5 5)"></rect>
      </clipPath>
    </defs>
  </symbol>
  <symbol fill="none" xmlns="http://www.w3.org/2000/svg" viewBox="0 0 24 24" id="fire">
    <path d="M18.9209 11.3616C18.52 10.4593 17.9372 9.64939 17.209 8.98261L16.608 8.43123C16.5876 8.41302 16.563 8.4001 16.5365 8.3936C16.5099 8.3871 16.4822 8.38722 16.4557 8.39395C16.4292 8.40067 16.4047 8.41381 16.3845 8.43219C16.3642 8.45057 16.3488 8.47364 16.3395 8.49938L16.0711 9.26967C15.9038 9.7529 15.5961 10.2465 15.1604 10.7318C15.1315 10.7627 15.0984 10.771 15.0757 10.7731C15.053 10.7751 15.0179 10.771 14.9869 10.7421C14.958 10.7173 14.9435 10.6801 14.9456 10.643C15.022 9.39977 14.6503 7.99755 13.8366 6.47143C13.1634 5.20345 12.2279 4.21426 11.059 3.52451L10.2062 3.02269C10.0946 2.95661 9.95215 3.04334 9.95834 3.17345L10.0038 4.1647C10.0348 4.84206 9.95628 5.44094 9.77042 5.93863C9.54325 6.54784 9.21696 7.11369 8.79981 7.6217C8.5095 7.97476 8.18047 8.2941 7.81888 8.57372C6.94803 9.24316 6.23992 10.1009 5.74757 11.0828C5.25643 12.0733 5.0006 13.1638 5 14.2693C5 15.244 5.19206 16.1878 5.57204 17.0779C5.93894 17.9348 6.46842 18.7126 7.1312 19.3681C7.8003 20.0289 8.57678 20.5493 9.44206 20.9107C10.3383 21.2866 11.2883 21.4766 12.2692 21.4766C13.2501 21.4766 14.2001 21.2866 15.0963 20.9128C15.9595 20.5535 16.7444 20.0295 17.4072 19.3701C18.0763 18.7093 18.6008 17.937 18.9664 17.0799C19.3458 16.1923 19.5404 15.2367 19.5384 14.2714C19.5384 13.2636 19.3319 12.2847 18.9209 11.3616Z" fill="#E55C5C"></path>
  </symbol>
  <symbol fill="none" xmlns="http://www.w3.org/2000/svg" viewBox="0 0 24 24" id="flower">
    <path d="M6.75529 9.18355C6.31778 9.44433 5.85995 9.60051 5.37284 9.65275C5.04466 9.68963 4.73251 9.65158 4.47144 9.55041C4.04344 9.38066 3.72587 9.07505 3.53041 8.6453C3.4853 8.54613 3.48219 8.43126 3.52652 8.32547C3.70799 7.8858 4.01426 7.57718 4.44123 7.39271C4.69741 7.28203 5.01254 7.23893 5.33986 7.26326C6.0165 7.31749 6.63614 7.57376 7.23253 8.026L7.55581 8.02005C7.62333 7.74169 7.76988 7.48626 7.97545 7.27501L7.80707 6.99253C7.10561 6.72432 6.56202 6.32933 6.16538 5.78139C5.96944 5.51533 5.84577 5.22954 5.80532 4.95018C5.73718 4.49122 5.84432 4.06785 6.11986 3.68417C6.1834 3.59494 6.2833 3.5354 6.39201 3.52195C6.86057 3.4621 7.28394 3.56924 7.65523 3.8475C7.88172 4.01597 8.07428 4.2607 8.2151 4.55961C8.50495 5.17121 8.59381 5.83725 8.49606 6.58185L8.66444 6.86433C8.94599 6.78054 9.24244 6.77659 9.51941 6.84961L9.67841 6.56807C9.56226 5.82492 9.6316 5.15796 9.90437 4.54249C10.0366 4.23955 10.223 3.98836 10.4457 3.81362C10.8076 3.52785 11.2282 3.4032 11.7013 3.45272C11.8099 3.46266 11.9095 3.52004 11.9808 3.60828C12.2692 3.98259 12.387 4.4073 12.3293 4.86658C12.2941 5.14434 12.1791 5.43701 11.9905 5.70814C11.7129 6.11176 11.3577 6.44019 10.9202 6.70097C10.7514 6.80159 10.5689 6.88703 10.3788 6.96764L10.2198 7.24918C10.3206 7.34783 10.4166 7.45402 10.4926 7.58149C10.5686 7.70895 10.6163 7.84389 10.6551 7.9795L10.9839 7.97495C11.5658 7.50206 12.1787 7.23009 12.855 7.15845C13.1832 7.12157 13.4953 7.15962 13.7564 7.26079C14.1844 7.43054 14.502 7.73615 14.6974 8.1659C14.7425 8.26507 14.7422 8.38199 14.7013 8.48573C14.5517 8.8457 14.3185 9.12015 14.005 9.30701C13.9361 9.34807 13.8651 9.3857 13.7901 9.41643C13.5339 9.52711 13.2222 9.56817 12.8914 9.54589C12.2148 9.49166 11.5951 9.23538 11.0022 8.7811L10.6789 8.78704C10.6128 9.0599 10.4662 9.31534 10.2641 9.52453C10.3237 9.62443 10.3867 9.72228 10.4462 9.82218C11.1353 10.0931 11.6713 10.4833 12.0673 11.0223C12.2632 11.2883 12.3869 11.5741 12.4274 11.8535C12.4699 12.1363 12.4375 12.403 12.3466 12.658C12.6432 13.0694 12.942 13.461 13.2339 13.8332C13.2678 13.5376 13.3546 13.2524 13.5033 12.977C13.8227 12.385 14.3646 11.9547 15.0647 11.7428C15.6099 11.5766 16.1795 11.5452 16.7466 11.6507C16.8889 11.6779 17.0097 11.7787 17.056 11.9191C17.1024 12.0596 17.0669 12.2115 16.9668 12.3178C16.6867 12.6155 16.331 13.1544 16.2517 13.6872C16.1282 14.5218 15.668 15.0109 15.1548 15.3168C14.9997 15.4092 14.8448 15.4783 14.6878 15.5438C15.9535 16.8997 17.1174 17.8027 18.0937 18.1639C18.3026 18.2401 18.4078 18.4715 18.3316 18.6804C18.2969 18.7711 18.2355 18.8404 18.1597 18.8856C18.0598 18.9451 17.9332 18.9599 17.815 18.9183C17.1122 18.6555 16.3907 18.1892 15.6819 17.6032L15.6233 17.6381C15.3358 17.8842 15.0111 18.1384 14.6528 18.352C13.9776 18.7545 13.1735 19.019 12.2442 18.8306C11.5815 18.698 10.6917 18.8736 10.132 19.0625C9.97774 19.117 9.80869 19.0684 9.70449 18.9484C9.60029 18.8285 9.57466 18.6523 9.64662 18.5067C9.9545 17.8796 10.3977 17.3073 10.9652 16.8103C11.6761 16.1858 12.4861 15.8057 13.3062 15.709C13.4507 15.6929 13.5903 15.6844 13.7306 15.6848C13.7169 15.6696 13.7012 15.651 13.6875 15.6359C13.0026 14.8629 12.3687 14.0501 11.8104 13.2857C11.3522 13.3394 10.9377 13.2316 10.5795 12.9596C10.353 12.7911 10.1605 12.5464 10.0196 12.2475C9.72978 11.6359 9.64092 10.9698 9.73523 10.2273L9.56685 9.94482C9.2853 10.0286 8.98885 10.0326 8.71188 9.95954L8.55287 10.2411C8.66902 10.9842 8.59969 11.6512 8.32692 12.2667C8.19467 12.5696 8.00824 12.8208 7.78558 12.9955C7.72284 13.0469 7.65599 13.0914 7.5871 13.1325C7.27361 13.3194 6.9178 13.3961 6.53344 13.3544C6.42274 13.341 6.32524 13.2871 6.25396 13.1988C5.96548 12.8245 5.84772 12.3998 5.90545 11.9405C5.94064 11.6627 6.05566 11.3701 6.24422 11.0989C6.63099 10.5416 7.16178 10.1318 7.85248 9.8415L8.01288 9.55447C7.91206 9.45582 7.81607 9.34962 7.7401 9.22216C7.66412 9.0947 7.61637 8.95975 7.57755 8.82415L7.25427 8.83009C7.08607 8.96303 6.92409 9.08293 6.75529 9.18355ZM5.27496 8.06297C5.07417 8.04726 4.89597 8.06944 4.75479 8.13025C4.57851 8.20264 4.4482 8.313 4.35008 8.46954C4.45142 8.62389 4.58868 8.72884 4.76661 8.80019C4.90745 8.85631 5.0869 8.8754 5.28849 8.85329C5.69717 8.81045 6.06828 8.67328 6.43073 8.44323C6.05791 8.21724 5.68204 8.09579 5.27496 8.06297ZM11.324 5.25571C11.4393 5.08891 11.5079 4.92197 11.5255 4.7714C11.5495 4.58439 11.5169 4.41235 11.4328 4.24772C11.2484 4.25957 11.0894 4.32169 10.9419 4.44232C10.8247 4.53552 10.7169 4.68377 10.6352 4.86786C10.4705 5.24155 10.3985 5.62994 10.4179 6.06193C10.7981 5.85394 11.0933 5.58931 11.324 5.25571ZM12.9474 8.74683C13.1482 8.76255 13.3264 8.74036 13.4675 8.67956C13.6418 8.60372 13.7755 8.49131 13.8723 8.34027C13.7709 8.18591 13.6337 8.08097 13.4578 8.01306C13.317 7.95694 13.1375 7.93785 12.9359 7.95996C12.5272 8.0028 12.1596 8.13792 11.7937 8.37002C12.1644 8.59257 12.5403 8.71402 12.9474 8.74683ZM15.459 13.5714C15.5214 13.1513 15.698 12.7426 15.9081 12.398C15.7024 12.4132 15.5001 12.4497 15.2942 12.5117C14.9514 12.618 14.4775 12.8491 14.2023 13.3587C14.0412 13.6602 13.8782 14.1308 14.1924 14.8773C14.9993 14.6018 15.3601 14.228 15.459 13.5714ZM6.89837 11.5541C6.78302 11.7209 6.71445 11.8878 6.69682 12.0384C6.67495 12.2289 6.70196 12.3995 6.78953 12.5621C6.97389 12.5502 7.13295 12.4881 7.28049 12.3675C7.39768 12.2743 7.50541 12.126 7.5871 11.9419C7.75188 11.5683 7.82385 11.1799 7.80446 10.7479C7.4242 10.9559 7.12906 11.2205 6.89837 11.5541ZM7.17259 4.49469C7.02023 4.38008 6.85946 4.32184 6.67377 4.3158C6.5942 4.47995 6.56895 4.64907 6.59385 4.83966C6.61749 4.98898 6.69267 5.15427 6.80912 5.3183C7.05301 5.64915 7.35077 5.90587 7.73399 6.10231C7.74144 5.66834 7.66071 5.28225 7.48432 4.91583C7.40232 4.73127 7.29269 4.58651 7.17259 4.49469ZM13.3974 16.5044C12.7397 16.5836 12.0778 16.8988 11.4883 17.4136C11.2586 17.6159 11.0531 17.8271 10.8722 18.0563C11.3786 17.9739 11.9255 17.9514 12.4019 18.0456C13.2508 18.2166 14.0474 17.9238 15.0561 17.0704C14.627 16.5932 14.1034 16.4198 13.3974 16.5044ZM11.0498 12.3151C11.2021 12.4297 11.3629 12.488 11.5486 12.494C11.6281 12.3299 11.6568 12.1587 11.6285 11.9701C11.6049 11.8208 11.5297 11.6555 11.4132 11.4915C11.1693 11.1607 10.8716 10.9039 10.4883 10.7075C10.4809 11.1415 10.5616 11.5276 10.738 11.894C10.82 12.0785 10.9297 12.2233 11.0498 12.3151ZM9.52185 9.09389C9.90079 8.86801 10.026 8.37316 9.80015 7.99422C9.57428 7.61528 9.07943 7.49005 8.70049 7.71592C8.32155 7.9418 8.19631 8.43665 8.42219 8.81559C8.64806 9.19453 9.14291 9.31976 9.52185 9.09389Z" fill="#359740"></path>
  </symbol>
  <symbol fill="none" xmlns="http://www.w3.org/2000/svg" viewBox="0 0 24 24" id="heart-complete">
    <path d="M18.5 6.99997C16.9 4.59997 13.5 5.99997 12 6.99997H11.5L9.5 5.99997H6.5L3 8.49997L4 13.5L11.5 20.5L13.5 18.5C21 11.5 20.5 9.99997 18.5 6.99997Z" fill="#359740"></path>
    <path d="M19.6573 5.80092C18.6273 4.78233 17.2619 4.16064 15.8078 4.04815C14.3538 3.93566 12.9068 4.33979 11.7284 5.18754C10.4921 4.28054 8.9533 3.86926 7.42187 4.03652C5.89044 4.20379 4.48014 4.93718 3.47497 6.08901C2.46981 7.24083 1.94444 8.72554 2.00466 10.2441C2.06488 11.7627 2.70623 13.2024 3.79954 14.2733L9.83364 20.2346C10.3389 20.7251 11.0195 21 11.7284 21C12.4374 21 13.1179 20.7251 13.6232 20.2346L19.6573 14.2733C20.7918 13.1474 21.4286 11.6245 21.4286 10.0371C21.4286 8.44971 20.7918 6.9268 19.6573 5.80092ZM18.2872 12.9507L12.2531 18.9024C12.1845 18.9708 12.1027 19.0251 12.0127 19.0621C11.9226 19.0992 11.826 19.1183 11.7284 19.1183C11.6308 19.1183 11.5342 19.0992 11.4442 19.0621C11.3541 19.0251 11.2724 18.9708 11.2037 18.9024L5.1696 12.9219C4.40757 12.1536 3.98086 11.1215 3.98086 10.0467C3.98086 8.97186 4.40757 7.93977 5.1696 7.17145C5.94612 6.41525 6.99341 5.99123 8.08463 5.99123C9.17584 5.99123 10.2231 6.41525 10.9997 7.17145C11.09 7.26128 11.1975 7.33258 11.3159 7.38124C11.4343 7.4299 11.5613 7.45495 11.6895 7.45495C11.8178 7.45495 11.9448 7.4299 12.0632 7.38124C12.1816 7.33258 12.2891 7.26128 12.3794 7.17145C13.156 6.41525 14.2032 5.99123 15.2945 5.99123C16.3857 5.99123 17.433 6.41525 18.2095 7.17145C18.982 7.9297 19.4227 8.9562 19.4372 10.0311C19.4518 11.1059 19.039 12.1436 18.2872 12.9219V12.9507Z" fill="#359740"></path>
  </symbol>
  <symbol xmlns="http://www.w3.org/2000/svg" viewBox="0 0 24 24" id="facebook">
    <path fill-rule="evenodd" clip-rule="evenodd" d="M2 12.0558C2 17.0275 5.61083 21.1617 10.3333 22V14.7775H7.83333V12H10.3333V9.7775C10.3333 7.2775 11.9442 5.88917 14.2225 5.88917C14.9442 5.88917 15.7225 6 16.4442 6.11083V8.66667H15.1667C13.9442 8.66667 13.6667 9.2775 13.6667 10.0558V12H16.3333L15.8892 14.7775H13.6667V22C18.3892 21.1617 22 17.0283 22 12.0558C22 6.525 17.5 2 12 2C6.5 2 2 6.525 2 12.0558Z"></path>
  </symbol>
  <symbol fill="none" xmlns="http://www.w3.org/2000/svg" viewBox="0 0 24 24" id="heart-outline">
    <path d="M19.6573 4.80092C18.6273 3.78233 17.2619 3.16064 15.8078 3.04815C14.3538 2.93566 12.9068 3.33979 11.7284 4.18754C10.4921 3.28054 8.9533 2.86926 7.42187 3.03652C5.89044 3.20379 4.48014 3.93718 3.47497 5.08901C2.46981 6.24083 1.94444 7.72554 2.00466 9.24413C2.06488 10.7627 2.70623 12.2024 3.79954 13.2733L9.83364 19.2346C10.3389 19.7251 11.0195 20 11.7284 20C12.4374 20 13.1179 19.7251 13.6232 19.2346L19.6573 13.2733C20.7918 12.1474 21.4286 10.6245 21.4286 9.0371C21.4286 7.44971 20.7918 5.9268 19.6573 4.80092V4.80092ZM18.2872 11.9507L12.2531 17.9024C12.1845 17.9708 12.1027 18.0251 12.0127 18.0621C11.9226 18.0992 11.826 18.1183 11.7284 18.1183C11.6308 18.1183 11.5342 18.0992 11.4442 18.0621C11.3541 18.0251 11.2724 17.9708 11.2037 17.9024L5.1696 11.9219C4.40757 11.1536 3.98086 10.1215 3.98086 9.04669C3.98086 7.97186 4.40757 6.93977 5.1696 6.17145C5.94612 5.41525 6.99341 4.99123 8.08463 4.99123C9.17584 4.99123 10.2231 5.41525 10.9997 6.17145C11.09 6.26128 11.1975 6.33258 11.3159 6.38124C11.4343 6.4299 11.5613 6.45495 11.6895 6.45495C11.8178 6.45495 11.9448 6.4299 12.0632 6.38124C12.1816 6.33258 12.2891 6.26128 12.3794 6.17145C13.156 5.41525 14.2032 4.99123 15.2945 4.99123C16.3857 4.99123 17.433 5.41525 18.2095 6.17145C18.982 6.9297 19.4227 7.9562 19.4372 9.03105C19.4518 10.1059 19.039 11.1436 18.2872 11.9219V11.9507Z" fill="#359740"></path>
  </symbol>
  <symbol fill="none" xmlns="http://www.w3.org/2000/svg" viewBox="0 0 20 17" id="heart-not-complete">
    <path d="M17.6573 1.80092C16.6273 0.782331 15.2619 0.160641 13.8078 0.0481522C12.3538 -0.0643367 10.9068 0.339793 9.72841 1.18754C8.49211 0.280536 6.9533 -0.130744 5.42187 0.0365241C3.89044 0.203792 2.48014 0.937182 1.47497 2.08901C0.469806 3.24083 -0.0555637 4.72554 0.00465958 6.24413C0.0648829 7.76273 0.706226 9.20242 1.79954 10.2733L7.83364 16.2346C8.33893 16.7251 9.01946 17 9.72841 17C10.4374 17 11.1179 16.7251 11.6232 16.2346L17.6573 10.2733C18.7918 9.1474 19.4286 7.62449 19.4286 6.0371C19.4286 4.44971 18.7918 2.9268 17.6573 1.80092ZM16.2872 8.95067L10.2531 14.9024C10.1845 14.9708 10.1027 15.0251 10.0127 15.0621C9.9226 15.0992 9.82599 15.1183 9.72841 15.1183C9.63083 15.1183 9.53422 15.0992 9.44416 15.0621C9.35409 15.0251 9.27237 14.9708 9.20371 14.9024L3.1696 8.92192C2.40757 8.15361 1.98086 7.12151 1.98086 6.04669C1.98086 4.97186 2.40757 3.93977 3.1696 3.17145C3.94612 2.41525 4.99341 1.99123 6.08463 1.99123C7.17584 1.99123 8.22313 2.41525 8.99965 3.17145C9.08998 3.26128 9.19745 3.33258 9.31586 3.38124C9.43427 3.4299 9.56127 3.45495 9.68954 3.45495C9.81782 3.45495 9.94482 3.4299 10.0632 3.38124C10.1816 3.33258 10.2891 3.26128 10.3794 3.17145C11.156 2.41525 12.2032 1.99123 13.2945 1.99123C14.3857 1.99123 15.433 2.41525 16.2095 3.17145C16.982 3.9297 17.4227 4.9562 17.4372 6.03105C17.4518 7.1059 17.039 8.14363 16.2872 8.92192V8.95067Z" fill="#359740"></path>
  </symbol>
  <symbol fill="none" xmlns="http://www.w3.org/2000/svg" viewBox="0 0 24 24" id="herb">
    <path d="M15.4144 16.9443C15.285 16.9443 15.15 16.9275 15.0038 16.8825C14.0025 16.6068 12.8944 16.9275 12.1969 17.6868C11.8988 18.0075 11.4994 18.1818 11.0719 18.1818C10.2281 18.1818 9.54189 17.4956 9.54189 16.6518C9.54189 16.59 9.55314 16.5112 9.56439 16.4156C9.68251 15.6731 9.49689 14.925 9.05251 14.3175C8.61376 13.7212 7.93876 13.3106 7.20751 13.1981C6.76876 13.1306 6.43689 12.7425 6.43689 12.3037C6.43689 12.0731 6.52126 11.865 6.67876 11.6906C7.23001 11.0943 7.50001 10.2843 7.41001 9.47433C7.31439 8.66996 6.88126 7.93871 6.21189 7.47746C5.95876 7.30308 5.60439 7.36496 5.43001 7.61808C5.25001 7.87121 5.31189 8.22558 5.57064 8.39996C5.97001 8.68121 6.23439 9.11433 6.29064 9.60371C6.34689 10.0875 6.18376 10.5768 5.85189 10.9368C5.60439 11.2068 5.31189 11.6625 5.31189 12.315C5.31189 13.3106 6.05439 14.1712 7.03876 14.3231C7.47751 14.3906 7.88251 14.6325 8.14689 14.9925C8.41126 15.3581 8.52376 15.8025 8.45064 16.2525C8.42251 16.4156 8.41689 16.545 8.41689 16.6575C8.41689 18.1256 9.60939 19.3125 11.0719 19.3125C11.82 19.3125 12.5119 19.0087 13.0238 18.4518C13.4456 17.9962 14.1094 17.805 14.7113 17.9681C14.9531 18.0356 15.1894 18.0693 15.42 18.0693C15.7294 18.0693 15.9825 17.8162 15.9825 17.5068C15.9769 17.1975 15.7238 16.9443 15.4144 16.9443Z" fill="#359740"></path>
    <path d="M18.6206 18.3337C19.3237 17.5631 19.7569 16.5394 19.7569 15.4144C19.7569 14.835 19.515 14.1938 19.3125 13.6875C20.2687 12.8888 21 11.7863 21 10.4475C21 8.04562 19.0538 6.105 16.6575 6.105C16.1737 6.105 15.8138 6.22875 15.375 6.375C14.9362 4.81125 13.395 3.61875 11.6906 3.61875C10.8919 3.61875 10.3575 3.6975 9.75 4.125C9.06938 3.33188 7.85437 3 6.72375 3C4.665 3 3 4.665 3 6.72375C3 7.995 3.71438 9.08063 4.6875 9.75C4.07438 10.4138 3.61875 11.3362 3.61875 12.3094C3.61875 14.1712 5.14875 15.6619 6.9375 15.9375C6.90375 16.1569 6.72375 16.4269 6.72375 16.6575C6.72375 19.0594 8.67 21 11.0662 21C12.3263 21 13.4513 20.1731 14.25 19.3125C14.5594 19.5431 15.015 19.7569 15.4144 19.7569C16.2806 19.7569 17.085 19.4981 17.76 19.065C18.1762 19.6556 18.5362 20.2125 18.8231 20.7131C18.93 20.8988 19.1156 21 19.3125 21C19.4081 21 19.5037 20.9775 19.5938 20.9269C19.8638 20.775 19.9594 20.4319 19.8019 20.1619C19.4813 19.605 19.0819 18.9862 18.6206 18.3337ZM14.9194 18.4125C14.7225 18.2606 14.4862 18.1875 14.25 18.1875C13.9462 18.1875 13.6425 18.3112 13.4231 18.5475C12.9675 19.0425 12.0506 19.875 11.0662 19.875C9.31687 19.875 7.89375 18.4744 7.84875 16.7419C7.86 16.7137 7.87125 16.6913 7.8825 16.6631C7.94438 16.5169 8.0175 16.3312 8.05125 16.1062C8.09625 15.8137 8.02313 15.51 7.84875 15.2681C7.66875 15.0319 7.40438 14.8688 7.10625 14.8238C5.9475 14.6494 4.74375 13.6594 4.74375 12.3094C4.74375 11.7075 5.03062 11.0325 5.51437 10.5094C5.73375 10.2675 5.84062 9.94688 5.80687 9.62063C5.77312 9.29438 5.59875 9.00188 5.32875 8.82188C4.56375 8.29875 4.125 7.52812 4.125 6.72375C4.125 5.28938 5.28938 4.125 6.72375 4.125C7.67438 4.125 8.50687 4.40625 8.895 4.85625C9.12 5.115 9.435 5.25 9.75 5.25C9.975 5.25 10.2 5.1825 10.3969 5.04188C10.7344 4.80563 10.9987 4.74375 11.6906 4.74375C12.8606 4.74375 13.98 5.57625 14.295 6.67875C14.3794 6.97688 14.5819 7.22437 14.8519 7.37063C15.015 7.455 15.195 7.5 15.375 7.5C15.4931 7.5 15.6169 7.48313 15.735 7.44375L15.7631 7.4325C16.1681 7.2975 16.3763 7.23 16.6519 7.23C18.4294 7.23 19.8694 8.67562 19.8694 10.4475C19.8694 11.5219 19.1719 12.3319 18.5869 12.8212C18.21 13.1362 18.0806 13.6538 18.2662 14.1094C18.3844 14.4019 18.6319 15.0037 18.6319 15.4144C18.6319 16.1625 18.3731 16.8544 17.94 17.4C17.1919 16.3988 16.3313 15.3412 15.42 14.2837L17.5631 10.0031C17.7037 9.7275 17.5913 9.39 17.31 9.24937C17.0344 9.10875 16.6969 9.22125 16.5563 9.5025L14.6213 13.3669C13.755 12.3881 12.8606 11.4263 11.9887 10.5319L12.5512 7.0275C12.6019 6.71812 12.3938 6.43125 12.0844 6.38063C11.7806 6.33 11.4881 6.53813 11.4375 6.8475L11.0044 9.54187C10.3744 8.90625 9.75562 8.32687 9.1875 7.82062V6.375C9.1875 6.06562 8.93437 5.8125 8.625 5.8125C8.31563 5.8125 8.0625 6.06562 8.0625 6.375V6.85875C7.48875 6.40313 6.99937 6.06 6.62812 5.87438C6.34687 5.73375 6.00938 5.84625 5.87438 6.12188C5.73375 6.40313 5.84625 6.74062 6.12188 6.87562C6.61688 7.12313 7.34813 7.68 8.21438 8.445C8.23125 8.45625 8.2425 8.4675 8.25375 8.47875C9.15938 9.2775 10.2169 10.3012 11.3138 11.4375H8.0625C7.75313 11.4375 7.5 11.6906 7.5 12C7.5 12.3094 7.75313 12.5625 8.0625 12.5625H12.3094C12.3319 12.5625 12.3488 12.5512 12.3713 12.5512C12.9394 13.1644 13.5131 13.8 14.07 14.4356L10.7231 15.3975C10.425 15.4819 10.2506 15.7969 10.3406 16.095C10.4081 16.3369 10.6275 16.5 10.875 16.5C10.9256 16.5 10.9762 16.4944 11.0325 16.4775L14.8744 15.375C15.6788 16.3256 16.4325 17.265 17.0962 18.1538C16.6069 18.4575 16.0275 18.6375 15.4087 18.6375C15.3469 18.6319 15.1331 18.5644 14.9194 18.4125Z" fill="#359740"></path>
  </symbol>
  <symbol xmlns="http://www.w3.org/2000/svg" viewBox="0 0 24 24" id="instagram">
    <path d="M12 8.87579C10.2797 8.87579 8.87577 10.2797 8.87577 12C8.87577 13.7203 10.2797 15.1242 12 15.1242C13.7203 15.1242 15.1242 13.7203 15.1242 12C15.1242 10.2797 13.7203 8.87579 12 8.87579ZM21.3703 12C21.3703 10.7063 21.382 9.42423 21.3094 8.13283C21.2367 6.63283 20.8945 5.30158 19.7976 4.2047C18.6984 3.10548 17.3695 2.76564 15.8695 2.69298C14.5758 2.62033 13.2937 2.63204 12.0023 2.63204C10.7086 2.63204 9.42655 2.62033 8.13515 2.69298C6.63515 2.76564 5.3039 3.10783 4.20702 4.2047C3.1078 5.30392 2.76796 6.63283 2.6953 8.13283C2.62265 9.42658 2.63436 10.7086 2.63436 12C2.63436 13.2914 2.62265 14.5758 2.6953 15.8672C2.76796 17.3672 3.11015 18.6985 4.20702 19.7953C5.30624 20.8945 6.63515 21.2344 8.13515 21.307C9.4289 21.3797 10.7109 21.368 12.0023 21.368C13.2961 21.368 14.5781 21.3797 15.8695 21.307C17.3695 21.2344 18.7008 20.8922 19.7976 19.7953C20.8969 18.6961 21.2367 17.3672 21.3094 15.8672C21.3844 14.5758 21.3703 13.2938 21.3703 12ZM12 16.807C9.33983 16.807 7.19296 14.6602 7.19296 12C7.19296 9.33986 9.33983 7.19298 12 7.19298C14.6601 7.19298 16.807 9.33986 16.807 12C16.807 14.6602 14.6601 16.807 12 16.807ZM17.0039 8.11876C16.3828 8.11876 15.8812 7.6172 15.8812 6.99611C15.8812 6.37501 16.3828 5.87345 17.0039 5.87345C17.625 5.87345 18.1266 6.37501 18.1266 6.99611C18.1267 7.14359 18.0978 7.28966 18.0415 7.42595C17.9851 7.56224 17.9024 7.68607 17.7981 7.79036C17.6939 7.89464 17.57 7.97733 17.4337 8.03368C17.2974 8.09004 17.1514 8.11895 17.0039 8.11876Z"></path>
  </symbol>
  <symbol fill="none" xmlns="http://www.w3.org/2000/svg" viewBox="0 0 24 24" id="leaf">
    <path d="M20.4138 22.1664C20.5057 22.0238 20.5375 21.8506 20.5022 21.6847C20.467 21.5187 20.3676 21.3734 20.2257 21.2805C19.5306 20.8294 18.724 20.3012 17.857 19.7053C18.1947 18.349 18.4125 16.9657 18.5082 15.5713C18.647 13.1076 18.2247 11.1272 17.2508 9.5727C15.3551 6.56955 11.7426 5.83173 8.83622 5.23668C7.04905 4.87207 5.36341 4.53248 4.67358 3.75987C4.5924 3.66952 4.48729 3.60404 4.37043 3.57102C4.25357 3.53801 4.12974 3.53882 4.01332 3.57335C3.89689 3.60789 3.79264 3.67474 3.71264 3.76614C3.63264 3.85755 3.58018 3.96977 3.56134 4.08979C3.48157 4.4779 2.22681 13.3857 6.93582 18.0664C9.25722 20.3662 12.5995 21.2175 16.8808 20.5899C17.845 21.2879 18.7395 21.8532 19.5282 22.3547C19.6708 22.4466 19.8439 22.4784 20.0098 22.4432C20.1757 22.4079 20.3209 22.3084 20.4138 22.1664V22.1664ZM7.82977 17.1578C4.5027 13.868 4.57789 7.85435 4.71675 5.39067C5.94809 5.93343 7.24697 6.30756 8.57828 6.50295C11.3832 7.07297 14.5567 7.72169 16.1636 10.258C17.3915 12.213 17.5723 15.0552 16.7186 18.901C13.3431 16.4709 9.53506 13.154 8.35323 9.35439C8.2956 9.20079 8.18143 9.07507 8.03412 9.00299C7.88682 8.93091 7.71753 8.91794 7.56096 8.96672C7.40439 9.0155 7.27239 9.12235 7.19203 9.26536C7.11167 9.40838 7.08902 9.57673 7.12873 9.7359C8.34181 13.666 11.9575 16.9721 15.3101 19.4652C12.1202 19.678 9.61614 18.9061 7.84296 17.1521L7.82977 17.1578Z" fill="#359740"></path>
  </symbol>
  <symbol xmlns="http://www.w3.org/2000/svg" viewBox="0 0 24 24" id="menu">
    <path d="M13 5.25C12.5858 5.25 12.25 5.58579 12.25 6C12.25 6.41421 12.5858 6.75 13 6.75L19 6.75C19.4142 6.75 19.75 6.41421 19.75 6C19.75 5.58579 19.4142 5.25 19 5.25H13Z"></path>
    <path d="M5 11.25C4.58579 11.25 4.25 11.5858 4.25 12C4.25 12.4142 4.58579 12.75 5 12.75H19C19.4142 12.75 19.75 12.4142 19.75 12C19.75 11.5858 19.4142 11.25 19 11.25H5Z"></path>
    <path d="M9 17.25C8.58579 17.25 8.25 17.5858 8.25 18C8.25 18.4142 8.58579 18.75 9 18.75L19 18.75C19.4142 18.75 19.75 18.4142 19.75 18C19.75 17.5858 19.4142 17.25 19 17.25L9 17.25Z"></path>
  </symbol>
  <symbol fill="none" xmlns="http://www.w3.org/2000/svg" viewBox="0 0 24 24" id="minus">
    <path d="M4 12H20" stroke="#359740" stroke-width="1.5" stroke-linecap="round"></path>
  </symbol>
  <symbol fill="none" xmlns="http://www.w3.org/2000/svg" viewBox="0 0 24 24" id="plus">
    <path d="M4 12H20M12 20V12L12 4" stroke="#359740" stroke-width="1.5" stroke-linecap="round"></path>
  </symbol>
  <symbol xmlns="http://www.w3.org/2000/svg" viewBox="0 0 24 24" id="search">
    <path d="M19.7753 18.6511L16.8091 15.7067C17.9605 14.2699 18.5181 12.4464 18.3672 10.6109C18.2164 8.77535 17.3685 7.06745 15.998 5.83834C14.6275 4.60923 12.8385 3.95232 10.9989 4.0027C9.15928 4.05307 7.40887 4.8069 6.10758 6.10918C4.80629 7.41146 4.05303 9.1632 4.0027 11.0042C3.95236 12.8452 4.60876 14.6356 5.83694 16.0071C7.06512 17.3787 8.77172 18.2272 10.6058 18.3781C12.4399 18.5291 14.2621 17.9711 15.6978 16.8188L18.64 19.7633C18.7143 19.8383 18.8028 19.8978 18.9002 19.9385C18.9976 19.9791 19.1021 20 19.2077 20C19.3132 20 19.4177 19.9791 19.5152 19.9385C19.6126 19.8978 19.701 19.8383 19.7753 19.7633C19.9194 19.6141 20 19.4147 20 19.2072C20 18.9997 19.9194 18.8003 19.7753 18.6511ZM11.2124 16.8188C10.1055 16.8188 9.02346 16.4903 8.10309 15.8749C7.18272 15.2595 6.46538 14.3847 6.04178 13.3613C5.61818 12.3379 5.50735 11.2117 5.7233 10.1252C5.93925 9.03875 6.47228 8.04076 7.25499 7.25746C8.0377 6.47416 9.03493 5.94072 10.1206 5.72461C11.2062 5.50849 12.3315 5.61941 13.3542 6.04333C14.3768 6.46725 15.2509 7.18514 15.8659 8.1062C16.4809 9.02727 16.8091 10.1102 16.8091 11.2179C16.8091 12.7034 16.2195 14.128 15.1699 15.1784C14.1203 16.2287 12.6968 16.8188 11.2124 16.8188Z"></path>
  </symbol>
  <symbol fill="none" xmlns="http://www.w3.org/2000/svg" viewBox="0 0 24 24" id="star">
    <path d="M22 9.64095C22.1 9.14095 21.7 8.54095 21.2 8.54095L15.5 7.74095L12.9 2.54095C12.8 2.34095 12.7 2.24095 12.5 2.14095C12 1.84095 11.4 2.04095 11.1 2.54095L8.6 7.74095L2.9 8.54095C2.6 8.54095 2.4 8.64095 2.3 8.84095C1.9 9.24095 1.9 9.84095 2.3 10.241L6.4 14.241L5.4 19.941C5.4 20.141 5.4 20.341 5.5 20.541C5.8 21.041 6.4 21.241 6.9 20.941L12 18.241L17.1 20.941C17.2 21.041 17.4 21.041 17.6 21.041C17.7 21.041 17.7 21.041 17.8 21.041C18.3 20.941 18.7 20.441 18.6 19.841L17.6 14.141L21.7 10.141C21.9 10.041 22 9.84095 22 9.64095Z" fill="#FFCF55"></path>
  </symbol>
  <symbol fill="none" xmlns="http://www.w3.org/2000/svg" viewBox="0 0 24 24" id="star-half-alt">
    <path d="M22 10.1001C22.1 9.60006 21.7 9.00006 21.2 9.00006L15.5 8.20006L12.9 3.00006C12.8 2.80006 12.7 2.70006 12.5 2.60006C12 2.30006 11.4 2.50006 11.1 3.00006L8.6 8.20006L2.9 9.00006C2.6 9.00006 2.4 9.10006 2.3 9.30006C1.9 9.70006 1.9 10.3001 2.3 10.7001L6.4 14.7001L5.4 20.4001C5.4 20.6001 5.4 20.8001 5.5 21.0001C5.8 21.5001 6.4 21.7001 6.9 21.4001L12 18.7001L17.1 21.4001C17.2 21.5001 17.4 21.5001 17.6 21.5001C17.7 21.5001 17.7 21.5001 17.8 21.5001C18.3 21.4001 18.7 20.9001 18.6 20.3001L17.6 14.6001L21.7 10.6001C21.9 10.5001 22 10.3001 22 10.1001ZM15.8 13.6001C15.6 13.8001 15.5 14.2001 15.5 14.5001L16.2 18.7001L12.4 16.7001C12.3 16.6001 12.1 16.6001 11.9 16.6001V5.70006L13.8 9.50006C13.9 9.80006 14.2 10.0001 14.6 10.0001L18.8 10.6001L15.8 13.6001Z" fill="#FFCF55"></path>
  </symbol>
  <symbol fill="none" xmlns="http://www.w3.org/2000/svg" viewBox="0 0 24 24" id="strawberry">
    <g clip-path="url(#clip0_23_2697)">
      <path d="M18.852 7.72634C17.802 6.12376 16.158 5.11344 14.394 4.82892C14.412 4.70698 14.394 4.57344 14.328 4.45731C14.202 4.23666 13.944 4.11473 13.68 4.16698L10.038 4.89279L9.53397 3.39473C9.46197 3.17989 9.26397 3.02311 9.02997 2.99989C8.79597 2.97666 8.56797 3.08698 8.44797 3.2844L7.36196 5.0786C6.62397 4.53279 5.71797 4.16118 4.79997 4.16118C4.46997 4.16118 4.19997 4.42247 4.19997 4.74182C4.19997 5.06118 4.46997 5.32247 4.79997 5.32247C5.49597 5.32247 6.19196 5.64763 6.74396 6.08311L3.26997 8.3244C3.04797 8.46376 2.95197 8.73085 3.02997 8.97473C3.10197 9.2186 3.33597 9.38698 3.59997 9.38698H5.20197L4.21797 12.7141C4.14597 12.9696 4.25397 13.2367 4.48797 13.3702C4.58397 13.4283 4.69197 13.4457 4.79997 13.4457C4.81197 15.3444 5.68196 17.185 7.28396 18.3696C9.65396 20.1173 13.104 21.0057 17.544 21.0057C17.712 21.0057 17.88 21.0057 18.048 20.9999C19.44 20.9767 20.622 19.9489 20.796 18.6076C21.366 14.2238 20.712 10.5657 18.852 7.72634ZM19.608 18.4625C19.506 19.2347 18.834 19.827 18.036 19.8386C13.626 19.9025 10.254 19.1012 8.01596 17.4463C6.44397 16.285 5.74197 14.3399 6.08997 12.4702L6.95396 11.6631C6.16197 13.5792 6.73197 15.7683 8.38197 16.9876C10.428 18.4973 13.512 19.2638 17.544 19.2638C17.706 19.2638 17.868 19.2638 18.036 19.258C18.366 19.2521 18.63 18.985 18.624 18.6657C18.618 18.3463 18.348 18.0967 18.024 18.0967C18.018 18.0967 18.018 18.0967 18.012 18.0967C14.022 18.1663 11.022 17.4696 9.11397 16.0644C7.82996 15.118 7.43397 13.347 8.17797 11.8605L9.73197 13.8115C9.83997 13.9509 10.02 14.0321 10.2 14.0321C10.266 14.0321 10.332 14.0205 10.392 14.0031C10.638 13.9218 10.8 13.7012 10.8 13.4515V9.31731L15.072 8.80053C15.342 8.76569 15.558 8.56247 15.594 8.30118C15.63 8.03989 15.48 7.79021 15.228 7.68569L12.696 6.68118L13.464 5.90892C15.174 5.93795 16.836 6.80892 17.838 8.34182C19.542 10.9547 20.142 14.3573 19.608 18.4625ZM7.52996 6.96569C7.54197 6.95989 7.54197 6.95408 7.54797 6.94827C7.70996 7.19795 7.79996 7.44182 7.79996 7.64505C7.79996 7.9644 8.06997 8.22569 8.39997 8.22569C8.72997 8.22569 8.99997 7.9644 8.99997 7.64505C8.99997 7.09343 8.71197 6.47215 8.24397 5.90892L8.80197 4.98569L9.05997 5.75214C9.15597 6.03666 9.45597 6.19924 9.74997 6.14118L12.012 5.68827L11.208 6.49537C11.07 6.63473 11.01 6.83214 11.052 7.01795C11.094 7.20376 11.226 7.36053 11.412 7.43602L12.648 7.92376L10.122 8.2315C9.82796 8.26634 9.59997 8.51602 9.59997 8.80634V11.7444L8.09997 9.85731C7.99797 9.72376 7.83597 9.64247 7.66796 9.63085C7.65596 9.63085 7.63796 9.63085 7.62597 9.63085C7.46996 9.63085 7.31996 9.68892 7.20597 9.79343L5.99396 10.9315L6.57596 8.95731C6.62997 8.78892 6.59397 8.60311 6.47997 8.45795C6.36597 8.31279 6.18597 8.22569 5.99996 8.22569H5.57997L7.52996 6.96569Z" fill="#359740"></path>
      <path d="M12.774 11.5414C12.894 11.6517 13.044 11.7097 13.2 11.7097C13.356 11.7097 13.506 11.6517 13.626 11.5414C13.86 11.3149 13.86 10.9491 13.626 10.7227L13.026 10.142C12.792 9.91556 12.414 9.91556 12.18 10.142C11.946 10.3685 11.946 10.7343 12.18 10.9607L12.774 11.5414Z" fill="#359740"></path>
      <path d="M16.374 10.9607C16.494 11.071 16.644 11.1291 16.8 11.1291C16.956 11.1291 17.106 11.071 17.226 10.9607C17.46 10.7342 17.46 10.3684 17.226 10.142L16.626 9.56132C16.392 9.33487 16.014 9.33487 15.78 9.56132C15.546 9.78777 15.546 10.1536 15.78 10.38L16.374 10.9607Z" fill="#359740"></path>
      <path d="M13.626 14.7814L13.026 14.2007C12.792 13.9743 12.414 13.9743 12.18 14.2007C11.946 14.4272 11.946 14.793 12.18 15.0194L12.78 15.6001C12.894 15.7162 13.044 15.7743 13.2 15.7743C13.356 15.7743 13.506 15.7162 13.626 15.6059C13.86 15.3794 13.86 15.0078 13.626 14.7814Z" fill="#359740"></path>
      <path d="M15.1739 13.8639C15.2939 13.9742 15.4439 14.0323 15.5999 14.0323C15.7559 14.0323 15.9059 13.9742 16.0259 13.8639C16.2599 13.6374 16.2599 13.2716 16.0259 13.0452L15.4259 12.4645C15.1919 12.2381 14.8139 12.2381 14.5799 12.4645C14.3459 12.691 14.3459 13.0568 14.5799 13.2832L15.1739 13.8639Z" fill="#359740"></path>
      <path d="M17.5739 13.8639L18.1739 14.4446C18.2939 14.5549 18.4439 14.6129 18.5999 14.6129C18.7559 14.6129 18.9059 14.5549 19.0259 14.4446C19.2599 14.2181 19.2599 13.8523 19.0259 13.6258L18.4259 13.0452C18.1919 12.8188 17.8139 12.8188 17.5799 13.0452C17.3399 13.2658 17.3399 13.6375 17.5739 13.8639Z" fill="#359740"></path>
      <path d="M16.626 15.362C16.392 15.1355 16.014 15.1355 15.78 15.362C15.546 15.5884 15.546 15.9542 15.78 16.1807L16.38 16.7613C16.494 16.8775 16.644 16.9355 16.8 16.9355C16.956 16.9355 17.106 16.8775 17.226 16.7671C17.46 16.5407 17.46 16.1749 17.226 15.9484L16.626 15.362Z" fill="#359740"></path>
    </g>
    <defs>
      <clipPath id="clip0_23_2697">
        <rect width="18" height="18" fill="white" transform="translate(3 3)"></rect>
      </clipPath>
    </defs>
  </symbol>
  <symbol fill="none" xmlns="http://www.w3.org/2000/svg" viewBox="0 0 24 24" id="tomato">
    <path d="M14.1996 4.35484C14.0616 4.22884 13.8695 4.16883 13.6775 4.21083L13.4975 4.24684C13.2035 4.21683 12.9035 4.19883 12.5975 4.19883C11.6674 4.19883 10.7673 4.35484 9.93327 4.63686L9.53124 3.41278C9.45924 3.19076 9.26123 3.02875 9.02721 3.00475C8.79319 2.97475 8.56518 3.08876 8.44517 3.29277L7.35909 5.1469C6.62104 4.58286 5.71498 4.19883 4.79692 4.19883C4.46689 4.19883 4.19687 4.46885 4.19687 4.79888C4.19687 5.1289 4.46689 5.39892 4.79692 5.39892C5.49296 5.39892 6.18901 5.73494 6.74105 6.18497L3.26681 8.50113C3.04479 8.64514 2.94879 8.92116 3.02679 9.17318C3.0988 9.4252 3.33281 9.59921 3.59683 9.59921H4.76091C4.40089 10.5293 4.19687 11.5433 4.19687 12.5994C4.19687 12.7494 4.20888 12.8934 4.22088 13.0434C4.18487 13.1695 4.19687 13.3015 4.23888 13.4155C4.64691 17.6698 8.23515 21 12.5975 21C17.2358 21 20.998 17.2377 20.998 12.5994C20.998 8.50713 18.0758 5.1049 14.1996 4.35484ZM12.5975 19.7999C8.9012 19.7999 5.84699 16.9977 5.44496 13.4095L6.015 12.8574C6.075 14.4595 6.71105 16.0497 7.93513 17.2677C9.21922 18.5518 10.9113 19.1999 12.6035 19.1999C14.2956 19.1999 15.9817 18.5578 17.2718 17.2677C17.5058 17.0337 17.5058 16.6557 17.2718 16.4217C17.0378 16.1877 16.6597 16.1877 16.4257 16.4217C14.3196 18.5278 10.8933 18.5278 8.78719 16.4217C7.4851 15.1196 6.98707 13.3075 7.29909 11.6153L7.56311 11.3573L9.72926 14.1655C9.83727 14.3155 10.0173 14.3995 10.1973 14.3995C10.2633 14.3995 10.3293 14.3875 10.3893 14.3695C10.6353 14.2855 10.7973 14.0575 10.7973 13.7995V9.5272L15.0696 8.99317C15.3396 8.95716 15.5557 8.74715 15.5917 8.47713C15.6277 8.20711 15.4777 7.94909 15.2256 7.84109L12.6935 6.80301L13.9295 5.52493C17.2658 6.15497 19.798 9.08317 19.798 12.5994C19.798 16.5717 16.5697 19.7999 12.5975 19.7999ZM7.52711 7.09703C7.53911 7.09103 7.53911 7.08503 7.54511 7.07903C7.70712 7.33705 7.79712 7.58907 7.79712 7.79908C7.79712 8.12911 8.06714 8.39912 8.39717 8.39912C8.72719 8.39912 8.99721 8.12911 8.99721 7.79908C8.99721 7.22904 8.70919 6.587 8.24115 6.00496L8.79919 5.05089L9.05721 5.84295C9.15322 6.13097 9.44724 6.30498 9.74726 6.24498L12.0094 5.77694L11.2054 6.611C11.0674 6.75501 11.0073 6.95902 11.0493 7.15104C11.0914 7.34305 11.2234 7.50506 11.4094 7.58307L12.6455 8.0871L10.1193 8.40512C9.82526 8.44113 9.59725 8.69915 9.59725 8.99917V12.0354L8.09714 10.0852C7.99514 9.94723 7.83313 9.86323 7.66511 9.85122C7.65311 9.85122 7.63511 9.85122 7.62311 9.85122C7.4671 9.85122 7.31709 9.91123 7.20308 10.0192L5.991 11.1953L6.57304 9.15518C6.62704 8.98116 6.59104 8.78915 6.47703 8.63914C6.36302 8.48913 6.18301 8.39912 5.997 8.39912H5.57697L7.52711 7.09703Z" fill="#359740"></path>
  </symbol>
</svg>
