<svg width="24" height="24" viewBox="0 0 24 24" fill="none" xmlns="http://www.w3.org/2000/svg">
<path d="M12 2.54089C7.05 2.54089 3 6.59089 3 11.5409C3 16.4909 7.05 20.5409 12 20.5409C16.95 20.5409 21 16.4909 21 11.5409C21 6.59089 16.95 2.54089 12 2.54089ZM14.7 12.4409H12C11.46 12.4409 11.1 12.0809 11.1 11.5409V7.04089C11.1 6.50089 11.46 6.14089 12 6.14089C12.54 6.14089 12.9 6.50089 12.9 7.04089V10.6409H14.7C15.24 10.6409 15.6 11.0009 15.6 11.5409C15.6 12.0809 15.24 12.4409 14.7 12.4409Z" fill="#359740"/>
</svg>
